<svg xmlns="http://www.w3.org/2000/svg" xmlns:xlink="http://www.w3.org/1999/xlink" width="500" zoomAndPan="magnify" viewBox="0 0 375 374.999991" height="500" preserveAspectRatio="xMidYMid meet" version="1.0"><defs><g/><clipPath id="e17dedaaac"><path d="M 146.945312 161.070312 L 307.328125 161.070312 L 307.328125 187 L 146.945312 187 Z M 146.945312 161.070312 " clip-rule="nonzero"/></clipPath></defs><rect x="-37.5" width="450" fill="#ffffff" y="-37.499999" height="449.999989" fill-opacity="1"/><rect x="-37.5" width="450" fill="#ffffff" y="-37.499999" height="449.999989" fill-opacity="1"/><rect x="-37.5" width="450" fill="#ffffff" y="-37.499999" height="449.999989" fill-opacity="1"/><g fill="#00bf63" fill-opacity="1"><g transform="translate(71.649433, 174.694201)"><g><path d="M 28.558594 -125.371094 C -0.210938 -96.601562 -0.210938 -49.769531 28.558594 -21 C 40.109375 -9.449219 54.601562 -2.308594 70.558594 0 C 73.5 0.421875 76.441406 0.628906 79.171875 0.628906 C 79.800781 0.628906 80.21875 0.628906 80.851562 0.628906 C 92.820312 0.628906 104.578125 -2.308594 115.078125 -7.769531 L 115.078125 0 C 115.078125 0.421875 115.289062 0.628906 115.5 0.628906 L 132.511719 0.628906 C 132.929688 0.628906 133.140625 0.421875 133.140625 0 L 133.140625 -59.21875 C 133.140625 -65.101562 129.359375 -70.351562 124.109375 -72.449219 L 132.511719 -72.449219 C 132.929688 -72.449219 133.140625 -72.871094 133.140625 -73.078125 C 133.140625 -73.5 132.929688 -73.710938 132.511719 -73.710938 L 115.5 -73.710938 C 115.289062 -73.710938 115.078125 -73.5 115.078125 -73.078125 L 115.078125 -9.03125 C 102.898438 -2.519531 89.460938 0.210938 76.441406 -0.628906 C 47.671875 -3.570312 25.199219 -35.070312 25.199219 -73.078125 C 25.199219 -113.191406 50.191406 -145.738281 80.851562 -145.738281 C 100.171875 -145.738281 118.441406 -138.179688 132.089844 -124.53125 C 132.300781 -124.320312 132.71875 -124.320312 132.929688 -124.53125 C 133.140625 -124.738281 133.140625 -125.160156 132.929688 -125.371094 C 119.070312 -139.230469 100.589844 -147 80.851562 -147 C 61.109375 -146.789062 42.628906 -139.230469 28.558594 -125.371094 Z M 28.558594 -125.371094 "/></g></g></g><g clip-path="url(#e17dedaaac)"><path fill="#ffffff" d="M 146.945312 161.070312 L 307.382812 161.070312 L 307.382812 186.742188 L 146.945312 186.742188 Z M 146.945312 161.070312 " fill-opacity="1" fill-rule="nonzero"/></g><g fill="#7ed957" fill-opacity="1"><g transform="translate(143.445633, 310.750703)"><g><path d="M 99.328125 -146.371094 C 99.328125 -146.578125 99.121094 -147 98.910156 -147 L 7.558594 -147 C 7.351562 -147 7.140625 -146.578125 7.140625 -146.371094 L 7.140625 0 C 7.140625 0.421875 7.351562 0.628906 7.558594 0.628906 L 98.910156 0.628906 C 99.121094 0.628906 99.328125 0.421875 99.328125 0 C 99.328125 -0.210938 99.121094 -0.421875 98.910156 -0.421875 L 25.199219 -0.421875 L 25.199219 -72.449219 L 53.128906 -72.449219 C 53.550781 -72.449219 53.761719 -72.871094 53.761719 -73.078125 C 53.761719 -73.5 53.550781 -73.710938 53.128906 -73.710938 L 25.199219 -73.710938 L 25.199219 -132.300781 C 25.199219 -138.390625 21.421875 -143.640625 16.171875 -145.738281 L 98.910156 -145.738281 C 99.121094 -145.738281 99.328125 -145.949219 99.328125 -146.371094 Z M 99.328125 -146.371094 "/></g></g></g><g fill="#7ed957" fill-opacity="1"><g transform="translate(97.593749, 363.175817)"><g><path d="M 21.109375 -15.171875 C 20.453125 -16.960938 19.332031 -18.414062 17.75 -19.53125 C 16.164062 -20.644531 14.296875 -21.203125 12.140625 -21.203125 C 10.335938 -21.203125 8.703125 -20.773438 7.234375 -19.921875 C 5.765625 -19.078125 4.601562 -17.863281 3.75 -16.28125 C 2.90625 -14.695312 2.484375 -12.851562 2.484375 -10.75 C 2.484375 -8.644531 2.90625 -6.800781 3.75 -5.21875 C 4.601562 -3.632812 5.765625 -2.421875 7.234375 -1.578125 C 8.703125 -0.734375 10.335938 -0.3125 12.140625 -0.3125 C 13.890625 -0.3125 15.492188 -0.71875 16.953125 -1.53125 C 18.421875 -2.34375 19.59375 -3.519531 20.46875 -5.0625 C 21.34375 -6.613281 21.800781 -8.410156 21.84375 -10.453125 L 11.671875 -10.453125 L 11.671875 -11 L 22.421875 -11 L 22.421875 -10.75 C 22.421875 -8.625 21.984375 -6.722656 21.109375 -5.046875 C 20.234375 -3.378906 19.015625 -2.078125 17.453125 -1.140625 C 15.890625 -0.210938 14.117188 0.25 12.140625 0.25 C 10.148438 0.25 8.375 -0.210938 6.8125 -1.140625 C 5.25 -2.078125 4.03125 -3.378906 3.15625 -5.046875 C 2.28125 -6.722656 1.84375 -8.625 1.84375 -10.75 C 1.84375 -12.875 2.28125 -14.773438 3.15625 -16.453125 C 4.03125 -18.128906 5.25 -19.429688 6.8125 -20.359375 C 8.375 -21.285156 10.148438 -21.75 12.140625 -21.75 C 14.460938 -21.75 16.453125 -21.15625 18.109375 -19.96875 C 19.765625 -18.789062 20.96875 -17.191406 21.71875 -15.171875 Z M 21.109375 -15.171875 "/></g></g></g><g fill="#7ed957" fill-opacity="1"><g transform="translate(121.864262, 363.175817)"><g><path d="M 3.21875 -0.546875 L 11.484375 -0.546875 L 11.484375 0 L 2.609375 0 L 2.609375 -21.578125 L 3.21875 -21.578125 Z M 3.21875 -0.546875 "/></g></g></g><g fill="#7ed957" fill-opacity="1"><g transform="translate(133.968872, 363.175817)"><g><path d="M 14.546875 -5.9375 L 3.890625 -5.9375 L 1.625 0 L 0.921875 0 L 8.921875 -20.921875 L 9.53125 -20.921875 L 17.5 0 L 16.796875 0 Z M 14.34375 -6.5 L 9.21875 -19.953125 L 4.109375 -6.5 Z M 14.34375 -6.5 "/></g></g></g><g fill="#000000" fill-opacity="1"><g transform="translate(152.378901, 363.175817)"><g/></g></g><g fill="#00bf63" fill-opacity="1"><g transform="translate(161.261713, 363.175817)"><g><path d="M 3.21875 -21.015625 L 3.21875 -11.0625 L 12.21875 -11.0625 L 12.21875 -10.515625 L 3.21875 -10.515625 L 3.21875 -0.546875 L 13.140625 -0.546875 L 13.140625 0 L 2.609375 0 L 2.609375 -21.578125 L 13.140625 -21.578125 L 13.140625 -21.015625 Z M 3.21875 -21.015625 "/></g></g></g><g fill="#00bf63" fill-opacity="1"><g transform="translate(175.940477, 363.175817)"><g><path d="M 17.21875 0 L 16.609375 0 L 3.21875 -20.4375 L 3.21875 0 L 2.609375 0 L 2.609375 -21.546875 L 3.21875 -21.546875 L 16.609375 -1.140625 L 16.609375 -21.546875 L 17.21875 -21.546875 Z M 17.21875 0 "/></g></g></g><g fill="#00bf63" fill-opacity="1"><g transform="translate(195.767525, 363.175817)"><g><path d="M 21.109375 -15.171875 C 20.453125 -16.960938 19.332031 -18.414062 17.75 -19.53125 C 16.164062 -20.644531 14.296875 -21.203125 12.140625 -21.203125 C 10.335938 -21.203125 8.703125 -20.773438 7.234375 -19.921875 C 5.765625 -19.078125 4.601562 -17.863281 3.75 -16.28125 C 2.90625 -14.695312 2.484375 -12.851562 2.484375 -10.75 C 2.484375 -8.644531 2.90625 -6.800781 3.75 -5.21875 C 4.601562 -3.632812 5.765625 -2.421875 7.234375 -1.578125 C 8.703125 -0.734375 10.335938 -0.3125 12.140625 -0.3125 C 13.890625 -0.3125 15.492188 -0.71875 16.953125 -1.53125 C 18.421875 -2.34375 19.59375 -3.519531 20.46875 -5.0625 C 21.34375 -6.613281 21.800781 -8.410156 21.84375 -10.453125 L 11.671875 -10.453125 L 11.671875 -11 L 22.421875 -11 L 22.421875 -10.75 C 22.421875 -8.625 21.984375 -6.722656 21.109375 -5.046875 C 20.234375 -3.378906 19.015625 -2.078125 17.453125 -1.140625 C 15.890625 -0.210938 14.117188 0.25 12.140625 0.25 C 10.148438 0.25 8.375 -0.210938 6.8125 -1.140625 C 5.25 -2.078125 4.03125 -3.378906 3.15625 -5.046875 C 2.28125 -6.722656 1.84375 -8.625 1.84375 -10.75 C 1.84375 -12.875 2.28125 -14.773438 3.15625 -16.453125 C 4.03125 -18.128906 5.25 -19.429688 6.8125 -20.359375 C 8.375 -21.285156 10.148438 -21.75 12.140625 -21.75 C 14.460938 -21.75 16.453125 -21.15625 18.109375 -19.96875 C 19.765625 -18.789062 20.96875 -17.191406 21.71875 -15.171875 Z M 21.109375 -15.171875 "/></g></g></g><g fill="#00bf63" fill-opacity="1"><g transform="translate(220.038039, 363.175817)"><g><path d="M 14.546875 -5.9375 L 3.890625 -5.9375 L 1.625 0 L 0.921875 0 L 8.921875 -20.921875 L 9.53125 -20.921875 L 17.5 0 L 16.796875 0 Z M 14.34375 -6.5 L 9.21875 -19.953125 L 4.109375 -6.5 Z M 14.34375 -6.5 "/></g></g></g><g fill="#00bf63" fill-opacity="1"><g transform="translate(238.455438, 363.175817)"><g><path d="M 21.109375 -15.171875 C 20.453125 -16.960938 19.332031 -18.414062 17.75 -19.53125 C 16.164062 -20.644531 14.296875 -21.203125 12.140625 -21.203125 C 10.335938 -21.203125 8.703125 -20.773438 7.234375 -19.921875 C 5.765625 -19.078125 4.601562 -17.863281 3.75 -16.28125 C 2.90625 -14.695312 2.484375 -12.851562 2.484375 -10.75 C 2.484375 -8.644531 2.90625 -6.800781 3.75 -5.21875 C 4.601562 -3.632812 5.765625 -2.421875 7.234375 -1.578125 C 8.703125 -0.734375 10.335938 -0.3125 12.140625 -0.3125 C 13.890625 -0.3125 15.492188 -0.71875 16.953125 -1.53125 C 18.421875 -2.34375 19.59375 -3.519531 20.46875 -5.0625 C 21.34375 -6.613281 21.800781 -8.410156 21.84375 -10.453125 L 11.671875 -10.453125 L 11.671875 -11 L 22.421875 -11 L 22.421875 -10.75 C 22.421875 -8.625 21.984375 -6.722656 21.109375 -5.046875 C 20.234375 -3.378906 19.015625 -2.078125 17.453125 -1.140625 C 15.890625 -0.210938 14.117188 0.25 12.140625 0.25 C 10.148438 0.25 8.375 -0.210938 6.8125 -1.140625 C 5.25 -2.078125 4.03125 -3.378906 3.15625 -5.046875 C 2.28125 -6.722656 1.84375 -8.625 1.84375 -10.75 C 1.84375 -12.875 2.28125 -14.773438 3.15625 -16.453125 C 4.03125 -18.128906 5.25 -19.429688 6.8125 -20.359375 C 8.375 -21.285156 10.148438 -21.75 12.140625 -21.75 C 14.460938 -21.75 16.453125 -21.15625 18.109375 -19.96875 C 19.765625 -18.789062 20.96875 -17.191406 21.71875 -15.171875 Z M 21.109375 -15.171875 "/></g></g></g><g fill="#00bf63" fill-opacity="1"><g transform="translate(262.725952, 363.175817)"><g><path d="M 3.21875 -21.015625 L 3.21875 -11.0625 L 12.21875 -11.0625 L 12.21875 -10.515625 L 3.21875 -10.515625 L 3.21875 -0.546875 L 13.140625 -0.546875 L 13.140625 0 L 2.609375 0 L 2.609375 -21.578125 L 13.140625 -21.578125 L 13.140625 -21.015625 Z M 3.21875 -21.015625 "/></g></g></g></svg>